<svg xmlns="http://www.w3.org/2000/svg" viewBox="0 0 145 32">
  <path d="M12.74 16.85L9.22 26L4.93 26L0.16 10.10L3.74 10.10L6.40 19.12L7.14 23.22L7.39 23.22L8.58 18.80L11.90 10.10L16.32 10.10L19.68 18.80L20.86 23.22L21.12 23.22L21.86 19.12L24.51 10.10L28.03 10.10L23.20 26L18.91 26L15.42 16.85L14.21 12.94L13.95 12.94L12.74 16.85ZM44.34 24.03Q41.89 26.32 37.92 26.32Q33.95 26.32 31.52 24.03Q29.09 21.74 29.09 18.06L29.09 18.06Q29.09 14.35 31.52 12.06Q33.95 9.78 37.92 9.78Q41.89 9.78 44.34 12.06Q46.78 14.35 46.78 18.06L46.78 18.06Q46.78 21.74 44.34 24.03ZM37.92 23.25L37.92 23.25Q40.77 23.25 42.08 21.95Q43.39 20.66 43.39 18.06Q43.39 15.47 42.08 14.14Q40.77 12.82 37.92 12.82L37.92 12.82Q32.48 12.82 32.48 18.06L32.48 18.06Q32.48 20.66 33.79 21.95Q35.10 23.25 37.92 23.25ZM52.74 4.56L52.74 26L49.28 26L49.28 4.56L52.74 4.56ZM60.61 12.98L60.61 26L57.15 26L57.15 12.98L54.75 12.98L54.75 10.10L57.18 10.10Q57.47 7.47 59.42 6.02Q61.38 4.56 64.74 4.56L64.74 4.56L66.30 4.56L66.30 7.12L64.19 7.12Q62.21 7.12 61.31 7.78Q60.42 8.43 60.54 10.10L60.54 10.10L66.30 10.10L66.30 12.98L60.61 12.98ZM75.14 24.56L75.14 24.56Q71.62 24.56 69.60 22.54Q67.58 20.53 67.58 17.17Q67.58 13.81 69.68 11.79Q71.78 9.78 75.36 9.78L75.36 9.78Q77.89 9.78 79.62 10.90Q81.34 12.02 81.76 14.06L81.76 14.06L81.95 14.06L81.95 10.10L85.12 10.10L85.12 24.14Q85.12 28.02 82.88 29.89Q80.64 31.76 76.58 31.76L76.58 31.76Q72.99 31.76 70.80 30.16Q68.61 28.56 68.61 25.71L68.61 25.71L72.03 25.71Q72.03 27.44 73.12 28.16Q74.21 28.88 76.77 28.88L76.77 28.88Q79.52 28.88 80.61 27.92Q81.70 26.96 81.70 24.34L81.70 24.34L81.70 20.43L81.47 20.43Q81.02 22.32 79.39 23.44Q77.76 24.56 75.14 24.56ZM72.40 13.79Q71.07 14.80 71.07 17.17Q71.07 19.54 72.38 20.56Q73.70 21.58 76.26 21.58L76.26 21.58Q78.91 21.58 80.30 20.50Q81.70 19.41 81.70 17.30L81.70 17.30L81.70 16.85Q81.70 14.86 80.30 13.82Q78.91 12.78 76.35 12.78L76.35 12.78Q73.73 12.78 72.40 13.79ZM91.78 17.07L91.78 26L88.32 26L88.32 10.10L91.49 10.10L91.49 14.38L91.71 14.38Q92.10 12.34 93.47 11.06Q94.85 9.78 97.18 9.78L97.18 9.78Q99.74 9.78 101.06 11.36Q102.37 12.94 102.37 15.38L102.37 15.38L102.37 17.46L98.94 17.46L98.94 16.05Q98.94 14.32 98.16 13.52Q97.38 12.72 95.62 12.72L95.62 12.72Q93.60 12.72 92.69 13.81Q91.78 14.90 91.78 17.07L91.78 17.07ZM112.54 26.32L112.54 26.32Q108.58 26.32 106.24 24.16Q103.90 22 103.90 18.06L103.90 18.06Q103.90 14.32 106.26 12.05Q108.61 9.78 112.48 9.78L112.48 9.78Q116.26 9.78 118.51 11.78Q120.77 13.78 120.77 17.33L120.77 17.33Q120.77 18.19 120.64 18.83L120.64 18.83L107.14 18.83Q107.23 21.20 108.50 22.37Q109.76 23.54 112.45 23.54L112.45 23.54Q117.15 23.54 117.15 20.56L117.15 20.56L117.15 20.30L120.61 20.30L120.61 20.59Q120.61 23.12 118.35 24.72Q116.10 26.32 112.54 26.32ZM112.42 12.50L112.42 12.50Q107.46 12.50 107.17 16.91L107.17 16.91L117.50 16.91L117.50 16.85Q117.50 12.50 112.42 12.50ZM125.92 31.44L125.92 31.44L123.65 31.44L123.65 28.30L126.75 28.30Q127.81 28.30 128.34 27.98Q128.86 27.66 129.22 26.83L129.22 26.83L129.60 26L121.76 10.10L125.63 10.10L129.70 18.54L131.26 22.35L131.52 22.35L133.02 18.51L136.77 10.10L140.58 10.10L132.29 27.73Q131.33 29.81 129.87 30.62Q128.42 31.44 125.92 31.44Z" fill="#050810"/>
</svg>